<svg width="96" height="97" viewBox="0 0 96 97" fill="none" xmlns="http://www.w3.org/2000/svg">
<path d="M9.76273 27.0506C4.37093 27.0506 0 31.4216 0 36.8133V86.7117C0 92.1035 4.37091 96.4744 9.76271 96.4744H86.2373C91.6291 96.4744 96 92.1035 96 86.7117V10.2371C96 4.84528 91.6291 0.474365 86.2373 0.474365H53.1525C47.7607 0.474365 43.3898 4.84528 43.3898 10.2371V17.2879C43.3898 22.6797 39.0189 27.0506 33.6271 27.0506H9.76273Z" fill="#1E69E8"/>
<path d="M9.41096 37.5045H13.0579V66.8132H9.41096V37.5045ZM11.8671 75.3968C14.0612 74.1812 15.6327 73.2324 16.5814 72.5505C17.5302 71.8685 18.2418 71.0235 18.7162 70.0154C19.2203 69.037 19.4723 67.6879 19.4723 65.9682V52.4035H23.1192V65.9682C23.1192 68.1623 22.7931 69.9709 22.1408 71.3941C21.4885 72.8173 20.4804 74.0329 19.1165 75.041C17.7526 76.0788 15.7957 77.2203 13.2459 78.4656L11.8671 75.3968ZM31.6344 75.2189C34.4807 74.0033 36.5562 73.0248 37.8608 72.2836C39.195 71.5424 40.1586 70.7566 40.7516 69.9265C41.3446 69.1259 41.6411 68.0882 41.6411 66.8132H36.8824C35.3109 66.8132 33.8581 66.4426 32.5238 65.7014C31.2193 64.9601 30.1667 63.952 29.3662 62.6771C28.5953 61.4022 28.2098 59.979 28.2098 58.4075C28.2098 56.8361 28.5953 55.3981 29.3662 54.0935C30.1667 52.7593 31.2193 51.7067 32.5238 50.9358C33.8581 50.1353 35.3109 49.735 36.8824 49.735C38.4241 49.735 39.8473 50.1353 41.1519 50.9358C42.4565 51.7067 43.4794 52.7593 44.2207 54.0935C44.9619 55.3981 45.3325 56.8361 45.3325 58.4075V65.4345C45.3325 67.7768 44.8878 69.6744 43.9983 71.1273C43.1088 72.5801 41.8339 73.7957 40.1735 74.7742C38.5427 75.7823 36.067 77.0127 32.7462 78.4656L31.6344 75.2189ZM36.8824 63.1218H41.6411V58.3631C41.6411 57.0288 41.1816 55.9021 40.2624 54.983C39.3433 54.0342 38.2166 53.5598 36.8824 53.5598C35.5481 53.5598 34.4214 54.0342 33.5023 54.983C32.5831 55.9021 32.1236 57.0288 32.1236 58.3631C32.1236 59.6973 32.5831 60.824 33.5023 61.7431C34.4214 62.6623 35.5481 63.1218 36.8824 63.1218ZM45.1546 62.9439H47.8231C48.1196 62.9439 48.2678 63.0922 48.2678 63.3887V66.3685C48.2678 66.665 48.1196 66.8132 47.8231 66.8132H45.1546V62.9439ZM60.5376 62.9439C61.4568 62.9439 62.2721 62.7216 62.9837 62.2768C63.6953 61.8024 64.2438 61.1946 64.6293 60.4534C65.0444 59.7121 65.2519 58.9561 65.2519 58.1852C65.2519 57.4143 65.0592 56.673 64.6738 55.9614C64.2883 55.2202 63.725 54.6272 62.9837 54.1825C62.2721 53.7081 61.4568 53.4709 60.5376 53.4709C59.2034 53.4709 58.0767 53.9304 57.1576 54.8496C56.2384 55.7687 55.7788 56.8806 55.7788 58.1852C55.7788 59.1636 56.016 60.0086 56.4904 60.7202C56.9648 61.4318 57.5726 61.9803 58.3139 62.3658C59.0551 62.7512 59.7964 62.9439 60.5376 62.9439H71.3005C72.6347 62.9439 73.7614 62.4844 74.6805 61.5652C75.6293 60.6461 76.1037 59.5194 76.1037 58.1852C76.1037 56.8806 75.6293 55.7687 74.6805 54.8496C73.7317 53.9304 72.6051 53.4709 71.3005 53.4709H50.4419V49.7795H71.3005C72.8719 49.7795 74.3099 50.1501 75.6145 50.8913C76.9487 51.6326 78.0013 52.6555 78.7722 53.9601C79.5727 55.235 79.973 56.6434 79.973 58.1852C79.973 59.7566 79.5727 61.2094 78.7722 62.5437C78.0013 63.8483 76.9487 64.886 75.6145 65.6569C74.2803 66.4278 72.8423 66.8132 71.3005 66.8132H60.3597C58.7586 66.8132 57.3206 66.413 56.0457 65.6124C54.7708 64.7822 53.7775 63.7 53.0659 62.3658C52.3543 61.0315 51.9985 59.638 51.9985 58.1852C51.9985 56.8509 52.3691 55.576 53.1104 54.3603C53.8516 53.1151 54.8745 52.107 56.1791 51.3361C57.4837 50.5652 58.9365 50.1797 60.5376 50.1797C62.3166 50.1797 63.7991 50.6393 64.9851 51.5584C66.1711 52.4479 67.0457 53.5153 67.6091 54.7606C68.2021 56.0059 68.4986 57.1474 68.4986 58.1852C68.4986 59.8752 68.0983 61.3873 67.2978 62.7216C66.4972 64.0262 65.4743 65.0342 64.229 65.7458C62.9837 66.4574 61.694 66.8132 60.3597 66.8132H47.7289L47.7734 62.9439H60.5376ZM85.287 37.5045H88.9339V66.8132H85.287V37.5045Z" fill="white"/>
<path d="M8.25061 16.3304C7.58985 16.3304 6.99791 16.0826 6.47481 15.587C5.97923 15.0639 5.73145 14.4582 5.73145 13.7699C5.73145 13.0816 5.97923 12.4897 6.47481 11.9941C6.97038 11.4985 7.56232 11.2507 8.25061 11.2507C8.99397 11.2507 9.59967 11.4985 10.0677 11.9941C10.5633 12.4897 10.8111 13.0816 10.8111 13.7699C10.8111 14.4857 10.5495 15.0914 10.0264 15.587C9.53085 16.0826 8.93891 16.3304 8.25061 16.3304Z" fill="#1E69E8"/>
<path d="M19.543 16.3304C18.8822 16.3304 18.2903 16.0826 17.7672 15.587C17.2716 15.0639 17.0238 14.4582 17.0238 13.7699C17.0238 13.0816 17.2716 12.4897 17.7672 11.9941C18.2628 11.4985 18.8547 11.2507 19.543 11.2507C20.2863 11.2507 20.892 11.4985 21.3601 11.9941C21.8557 12.4897 22.1035 13.0816 22.1035 13.7699C22.1035 14.4857 21.8419 15.0914 21.3188 15.587C20.8232 16.0826 20.2313 16.3304 19.543 16.3304Z" fill="#1E69E8"/>
<path d="M30.8354 16.3304C30.1746 16.3304 29.5827 16.0826 29.0596 15.587C28.564 15.0639 28.3162 14.4582 28.3162 13.7699C28.3162 13.0816 28.564 12.4897 29.0596 11.9941C29.5551 11.4985 30.1471 11.2507 30.8354 11.2507C31.5787 11.2507 32.1844 11.4985 32.6525 11.9941C33.148 12.4897 33.3958 13.0816 33.3958 13.7699C33.3958 14.4857 33.1343 15.0914 32.6112 15.587C32.1156 16.0826 31.5237 16.3304 30.8354 16.3304Z" fill="#1E69E8"/>
</svg>
