<svg width="24" height="24" viewBox="0 0 24 24" fill="none" xmlns="http://www.w3.org/2000/svg">
<path fill-rule="evenodd" clip-rule="evenodd" d="M1 12C1 5.92487 5.92487 1 12 1C18.0751 1 23 5.92487 23 12C23 18.0751 18.0751 23 12 23C5.92487 23 1 18.0751 1 12ZM9.5 7.66986C9.8094 7.49123 10.1906 7.49123 10.5 7.66986L16.5 11.134C16.8094 11.3126 17 11.6427 17 12C17 12.3573 16.8094 12.6874 16.5 12.866L10.5 16.3301C10.1906 16.5087 9.8094 16.5087 9.5 16.3301C9.1906 16.1515 9 15.8214 9 15.4641V8.53589C9 8.17862 9.1906 7.8485 9.5 7.66986Z" fill="black" fill-opacity="0.85"/>
</svg>
