<svg xmlns="http://www.w3.org/2000/svg" width="2000" height="2000" viewBox="0 0 2000 2000"><path d="M 946 66.093 C 225.591 108.761, -178.612 921.213, 222.428 1520.478 C 632.297 2132.936, 1561.714 2051.108, 1857.750 1376.500 C 1874.771 1337.712, 1903 1257.850, 1903 1248.483 C 1903 1247.178, 1882.312 1247, 1730.578 1247 L 1558.157 1247 1554.892 1254.250 C 1414.011 1567.103, 1032.351 1700.501, 723.670 1544.782 L 707.840 1536.796 548.808 1573.444 C 461.340 1593.600, 389.444 1609.959, 389.038 1609.796 C 388.633 1609.633, 404.847 1537.797, 425.069 1450.160 L 461.838 1290.821 452.512 1272.160 C 320.667 1008.353, 396.471 687.670, 632.500 510.728 C 940.599 279.758, 1381.134 386.873, 1549.725 733.750 L 1559.081 753 1731.040 753 C 1831.463 753, 1903 752.628, 1903 752.106 C 1903 749.992, 1889.610 707.020, 1883.960 691 C 1744.860 296.621, 1361.875 41.461, 946 66.093 M 688 912.485 C 637.960 922.470, 606.197 974.676, 620.485 1023.451 C 643.359 1101.531, 749.800 1110.725, 784.941 1037.655 C 816.607 971.811, 759.596 898.199, 688 912.485 M 982 912.426 C 899.569 930.723, 884.655 1040.493, 959.500 1078.029 C 1043.401 1120.108, 1125.962 1019.900, 1069.171 944.916 C 1049.848 919.403, 1012.791 905.591, 982 912.426 M 1274.500 912.643 C 1204.936 927.351, 1180.715 1015.933, 1233.017 1064.355 C 1282.530 1110.196, 1364.618 1084.686, 1379.406 1018.863 C 1393.486 956.190, 1337.352 899.354, 1274.500 912.643" stroke="none" fill="#fffcfc" fill-rule="evenodd"></path></svg>