<svg width="22" height="22" viewBox="0 0 22 22" fill="none" xmlns="http://www.w3.org/2000/svg">
<path fill-rule="evenodd" clip-rule="evenodd" d="M0 11C0 4.92487 4.92487 0 11 0C17.0751 0 22 4.92487 22 11C22 17.0751 17.0751 22 11 22C4.92487 22 0 17.0751 0 11ZM8.5 6.66986C8.8094 6.49123 9.1906 6.49123 9.5 6.66986L15.5 10.134C15.8094 10.3126 16 10.6427 16 11C16 11.3573 15.8094 11.6874 15.5 11.866L9.5 15.3301C9.1906 15.5087 8.8094 15.5087 8.5 15.3301C8.1906 15.1515 8 14.8214 8 14.4641V7.53589C8 7.17862 8.1906 6.8485 8.5 6.66986Z" fill="white" fill-opacity="0.85"/>
</svg>
