<svg width="24" height="24" viewBox="0 0 24 24" fill="none" xmlns="http://www.w3.org/2000/svg">
<path fill-rule="evenodd" clip-rule="evenodd" d="M8.41184 14.6913C8.8098 14.4018 9.35917 14.4449 9.70712 14.7929L12 17.0858L14.2929 14.7929C14.6409 14.4449 15.1902 14.4018 15.5882 14.6913L21.0882 18.6913C21.2913 18.839 21.4313 19.0576 21.4806 19.3039L21.9806 21.8039C22.0889 22.3454 21.7377 22.8723 21.1961 22.9806C20.6546 23.0889 20.1277 22.7377 20.0194 22.1961L19.596 20.079L15.1029 16.8113L12.7071 19.2071C12.3166 19.5976 11.6834 19.5976 11.2929 19.2071L8.89712 16.8113L4.404 20.079L3.98059 22.1961C3.87228 22.7377 3.34545 23.0889 2.80389 22.9806C2.26233 22.8723 1.91112 22.3454 2.01943 21.8039L2.51943 19.3039C2.56868 19.0576 2.70876 18.839 2.91184 18.6913L8.41184 14.6913Z" fill="black" fill-opacity="0.85"/>
<path fill-rule="evenodd" clip-rule="evenodd" d="M5.00001 8C5.00001 4.134 8.13403 1 12 1C15.866 1 19 4.134 19 8C19 9.93271 18.2154 11.6841 16.9498 12.9498C16.5592 13.3403 15.9261 13.3403 15.5356 12.9498C15.145 12.5592 15.145 11.9261 15.5356 11.5355C15.8087 11.2624 16.0502 10.9581 16.2544 10.6285C16.2943 10.3425 16.1847 10.0786 15.8812 9.76036C15.5789 9.44349 15.2111 9.20372 14.8467 8.96624C14.756 8.90712 14.6655 8.84815 14.5763 8.78816C14.5395 8.7634 14.404 8.69944 14.1038 8.62321C13.8244 8.55224 13.4916 8.49155 13.1183 8.42749C12.7604 8.36607 12.3576 8.30037 11.9974 8.22381C11.6496 8.14989 11.2518 8.04852 10.9218 7.88684C10.1746 7.52069 9.75465 6.76394 9.53003 6.35912C9.49157 6.28981 9.45746 6.22751 9.42669 6.17132C9.35494 6.04027 9.28486 5.90738 9.20081 5.78364C9.14752 5.76877 9.12816 5.77551 9.10963 5.78197L9.10608 5.7832C9.03109 5.8088 8.76074 5.94234 8.31941 6.57317C7.86107 7.22838 7.5417 8.37796 7.50372 10.1902C7.74808 10.6907 8.07396 11.145 8.46447 11.5355C8.85499 11.9261 8.85499 12.5592 8.46447 12.9498C8.07394 13.3403 7.44078 13.3403 7.05025 12.9498C6.43748 12.337 5.93738 11.6105 5.58442 10.8038C5.20822 9.94409 5.00001 8.99504 5.00001 8ZM16.9996 8.06669C17.0355 5.31668 14.751 3 12 3C11.0119 3 10.0908 3.28661 9.31517 3.78124C9.63177 3.80681 9.89917 3.90008 10.1012 3.98788M16.9996 8.06669C16.5898 7.70866 16.1493 7.42454 15.8663 7.24203C15.4679 6.98502 15.0586 6.80221 14.5962 6.68476C14.2312 6.59206 13.8269 6.51985 13.4566 6.4563C13.0709 6.3901 12.7235 6.33346 12.4131 6.2675C12.0903 6.19889 11.8971 6.13755 11.8018 6.09086C11.5143 5.94998 11.3572 5.5327 11.2101 5.26344C11.1173 5.09368 11.0047 4.88768 10.8947 4.71901C10.7722 4.53114 10.5213 4.1704 10.1012 3.98788" fill="black" fill-opacity="0.85"/>
</svg>
